# xmcd
#
# Track frame offsets: 
#        150
#        22940
#        40403
#        53233
#        72261
#        90000
#        120261
#        142155
#        174041
#        186383
#        196412
#        220911
#        233806
#        259047
#        283033
#        309806
#
# Disc length: 4323 seconds
#
# Revision: 3
# Processed by: cddbd v1.5.2PL0 Copyright (c) Steve Scherf et al.
# Submitted via: ExactAudioCopy v1.0b1
#
DISCID=d610e110
DTITLE=Various Artist - VONYC Sessions 2009 - Presented By Paul van D
DTITLE=yk [CD1]
DYEAR=2009
DGENRE=Trance
TTITLE0=Alex M.O.R.P.H. feat. Simon - No Regrets [Classic Meets Chriss
TTITLE0=Ortega's Purple Mix]
TTITLE1=Fast Distance - Big Ben [Dimension Remix]
TTITLE2=Paul Van Dyk - Words [Jerome Isma-Ae Remix]
TTITLE3=Adam Foley - For The Record
TTITLE4=Ben Nicky - Special Moment [Steve Allen Remix]
TTITLE5=Paul Van Dyk feat. Hemstock and Jennings - Nothing But You [Supe
TTITLE5=r8 and Tab Remix]
TTITLE6=Giuseppe Ottaviani feat. Francesco M. - Changing Ways
TTITLE7=Alex M.O.R.P.H. feat. Ana Criado - Sunset Boulevard [Paul Van 
TTITLE7=Dyk Remix]
TTITLE8=Sky Motion - Thought Chain [Nivaya Remix]
TTITLE9=David Forbes - Break Out [Darker Mix]
TTITLE10=Filo and Peri with Eric Lumiere - Off The Hook
TTITLE11=Barry Jay - Infused
TTITLE12=Sabanci and Truby - Leaving Ankara
TTITLE13=Filo and Peri with Eric Lumiere - Soul And The Sun [Giuseppe Ot
TTITLE13=taviani Remix]
TTITLE14=Activa - This World
TTITLE15=Giuseppe Ottaviani - One Day
EXTD=
EXTT0=
EXTT1=
EXTT2=
EXTT3=
EXTT4=
EXTT5=
EXTT6=
EXTT7=
EXTT8=
EXTT9=
EXTT10=
EXTT11=
EXTT12=
EXTT13=
EXTT14=
EXTT15=
PLAYORDER=
